<?xml version="1.0" standalone="no"?>
<!DOCTYPE svg PUBLIC "-//W3C//DTD SVG 20010904//EN"
 "http://www.w3.org/TR/2001/REC-SVG-20010904/DTD/svg10.dtd">
<svg version="1.0" xmlns="http://www.w3.org/2000/svg"
 width="225.000000pt" height="224.000000pt" viewBox="0 0 225.000000 224.000000"
 preserveAspectRatio="xMidYMid meet">

<g transform="translate(0.000000,224.000000) scale(0.100000,-0.100000)"
fill="#000000" stroke="none">
<path d="M1142 2197 c-27 -10 -31 -15 -20 -27 11 -12 11 -12 -4 -1 -28 21 -69
-2 -163 -88 -65 -61 -100 -84 -171 -115 -151 -66 -271 -155 -369 -274 -156
-188 -228 -390 -227 -637 0 -281 100 -516 302 -708 127 -122 280 -208 446
-249 132 -33 353 -32 479 1 253 67 480 234 607 449 50 83 54 92 40 92 -5 0
-18 -19 -28 -42 -25 -55 -119 -182 -175 -234 -121 -114 -227 -177 -379 -228
-289 -96 -592 -56 -842 110 -276 184 -437 482 -438 810 0 370 207 710 530 870
108 53 143 64 165 51 40 -22 144 -55 213 -67 57 -11 107 -11 249 -1 98 6 225
13 283 16 58 2 107 5 110 5 33 4 -334 128 -444 150 -41 8 -55 15 -45 21 8 5
22 9 32 9 9 0 17 5 17 10 0 6 -16 8 -42 4 -31 -5 -39 -4 -34 5 5 7 15 10 23 7
8 -3 21 1 29 9 14 13 11 15 -23 16 -21 1 -30 3 -20 6 30 8 8 23 -36 24 l-42 2
35 7 c34 7 34 7 5 8 -16 0 -45 -5 -63 -11z m61 -24 c-13 -2 -33 -2 -45 0 -13
2 -3 4 22 4 25 0 35 -2 23 -4z"/>
<path d="M1250 2203 c0 -10 52 -34 58 -28 3 3 -1 5 -9 5 -12 0 -11 2 1 11 13
9 12 10 -2 5 -10 -3 -18 -1 -18 4 0 6 -7 10 -15 10 -8 0 -15 -3 -15 -7z"/>
<path d="M1340 2170 c-9 -6 -10 -10 -3 -10 6 0 15 5 18 10 8 12 4 12 -15 0z"/>
<path d="M1320 2105 c0 -2 10 -10 23 -16 20 -11 21 -11 8 4 -13 16 -31 23 -31
12z"/>
<path d="M897 1553 c-4 -3 -7 -15 -7 -25 0 -29 44 -20 48 10 3 16 -2 22 -16
22 -10 0 -22 -3 -25 -7z"/>
<path d="M977 1531 c79 -50 84 -155 9 -200 -53 -31 -82 -34 -383 -32 l-293 2
0 -57 0 -58 29 28 c27 25 35 28 77 23 81 -9 88 -23 92 -192 l3 -145 -29 -30
-30 -30 91 1 c64 0 85 3 70 9 -37 15 -43 42 -43 194 0 197 -5 192 205 199 139
5 205 26 255 84 61 69 27 193 -60 218 -21 6 -20 4 7 -14z"/>
<path d="M984 1222 c-5 -4 -17 -19 -27 -34 -9 -15 -32 -32 -50 -37 l-32 -9 41
-1 c28 -1 44 -6 48 -17 3 -9 6 -68 5 -132 -1 -114 -1 -116 25 -139 15 -13 39
-23 52 -23 l26 0 -26 31 c-26 30 -27 34 -24 153 l3 121 35 6 35 6 -37 2 c-36
1 -38 3 -38 35 0 33 -17 51 -36 38z"/>
<path d="M1509 1121 c-25 -25 -34 -29 -45 -20 -23 19 -64 -4 -64 -35 0 -27 15
-42 25 -26 15 25 25 -7 25 -85 0 -63 -4 -88 -16 -99 -14 -15 -10 -16 42 -16
55 0 56 1 41 18 -20 22 -24 150 -6 200 19 54 97 76 130 36 10 -12 9 -17 -6
-28 -21 -15 -12 -36 16 -36 28 0 24 39 -8 78 -19 22 -40 35 -65 39 -32 5 -41
1 -69 -26z"/>
<path d="M707 1107 c-6 -16 0 -27 16 -27 5 0 6 7 3 16 -5 14 -1 16 26 10 100
-20 129 -161 47 -230 -37 -32 -50 -32 -77 -3 -55 59 -43 151 23 177 18 8 17 9
-8 9 -95 3 -143 -109 -78 -181 27 -31 34 -33 93 -33 44 0 73 6 91 18 82 53 85
172 6 229 -34 26 -134 36 -142 15z"/>
<path d="M1166 1111 c-8 -13 1 -31 16 -31 7 0 6 6 -2 15 -10 13 -9 15 11 15
115 -2 150 -184 48 -244 -35 -21 -61 -10 -84 34 -25 49 -19 88 19 126 l34 34
-28 0 c-16 0 -42 -11 -59 -26 -40 -33 -49 -80 -25 -129 30 -63 110 -82 191
-46 50 23 73 62 73 126 0 39 -5 52 -37 86 -33 35 -45 41 -94 46 -37 4 -59 2
-63 -6z"/>
<path d="M1747 1113 c-11 -10 -8 -33 4 -33 6 0 9 7 5 15 -11 29 43 16 81 -18
32 -30 37 -41 41 -90 4 -55 3 -58 -36 -97 -22 -22 -45 -40 -52 -40 -6 0 -25
13 -41 29 -43 43 -41 101 5 147 l34 34 -30 0 c-42 0 -98 -57 -98 -99 0 -96 96
-147 197 -106 56 23 78 59 78 125 0 66 -22 102 -78 125 -38 15 -98 20 -110 8z"/>
<path d="M1218 719 c-23 -13 -24 -72 -2 -93 18 -18 32 -20 54 -6 9 6 17 5 22
-3 4 -7 8 2 8 21 0 27 -4 32 -22 31 -13 0 -17 -3 -10 -6 18 -7 14 -30 -7 -36
-29 -7 -51 11 -51 43 0 34 34 60 53 41 6 -6 18 -11 26 -11 11 0 10 4 -5 15
-22 17 -42 18 -66 4z"/>
<path d="M1360 685 c-7 -25 -17 -48 -21 -51 -14 -8 -10 -24 6 -24 8 0 15 9 15
21 0 16 5 20 28 17 19 -2 26 -8 24 -20 -2 -11 3 -18 12 -18 12 0 10 10 -8 57
-12 31 -26 58 -32 60 -6 2 -17 -17 -24 -42z m40 -12 c0 -7 -7 -13 -15 -13 -16
0 -19 9 -9 35 5 13 8 14 15 3 5 -7 9 -19 9 -25z"/>
<path d="M1475 672 c0 -35 4 -59 11 -59 5 0 8 13 6 30 -4 24 -1 28 14 25 10
-2 21 -14 24 -27 3 -14 11 -26 18 -29 13 -4 17 14 3 20 -13 5 -24 48 -12 48
18 0 12 29 -8 40 -45 24 -56 14 -56 -48z m54 35 c13 -16 5 -27 -21 -27 -18 0
-25 20 -11 33 10 10 19 8 32 -6z"/>
<path d="M1595 670 c0 -54 2 -60 20 -60 34 0 65 28 65 60 0 32 -31 60 -65 60
-18 0 -20 -6 -20 -60z m56 40 c11 -6 19 -21 19 -35 0 -26 -26 -58 -44 -52 -19
6 -20 97 -1 97 4 0 15 -5 26 -10z"/>
<path d="M1725 670 l0 -60 38 0 c26 0 37 4 37 15 0 8 -4 15 -10 15 -5 0 -10
-4 -10 -9 0 -5 -8 -8 -17 -7 -25 4 -29 43 -6 49 16 4 17 5 1 6 -25 1 -24 41 1
41 11 0 21 -6 24 -12 2 -7 8 -10 12 -6 14 13 -6 28 -38 28 l-32 0 0 -60z"/>
<path d="M1835 670 c0 -38 4 -60 11 -60 8 0 10 16 6 46 -6 55 6 53 33 -6 10
-22 22 -40 27 -40 4 0 8 20 8 44 0 24 3 51 6 60 4 10 1 16 -8 16 -10 0 -12
-13 -10 -47 l3 -48 -26 40 c-13 22 -25 43 -25 48 0 4 -6 7 -12 7 -9 0 -13 -19
-13 -60z"/>
</g>
</svg>
